<svg version="1.1" xmlns="http://www.w3.org/2000/svg" xmlns:xlink="http://www.w3.org/1999/xlink" x="0px" y="0px"
	 viewBox="0 0 97 21" style="enable-background:new 0 0 97 21;" xml:space="preserve" fill="#359740">
<path d="M0,18.3l2.3-2.6c1.2,1.3,2.8,1.7,4.5,1.7c2.1,0,3.3-0.9,3.3-2.6c0-0.7-0.2-1.3-0.6-1.7
	c-0.4-0.4-0.8-0.6-1.6-0.7L5.6,12c-1.6-0.3-2.8-0.8-3.6-1.7C1.2,9.3,0.7,8,0.7,6.3C0.7,2.6,3.2,0,7.2,0c2.5,0,4.4,0.7,6,2.4
	l-2.3,2.5C9.7,3.7,8.3,3.5,7.1,3.5c-1.9,0-2.9,1.2-2.9,2.6c0,0.5,0.2,1.1,0.5,1.5c0.4,0.4,1,0.7,1.7,0.8l2.2,0.3
	c1.7,0.3,2.8,0.8,3.5,1.6c1,1,1.4,2.6,1.4,4.4c0,4-3,6.3-6.9,6.3C4,21,1.8,20.3,0,18.3z"/>
<path d="M17,20.8V0.2h12.2v3.6h-8.6v4.8H28v3.6h-7.3v5h8.6v3.6H17z"/>
<path d="M32.8,20.8V0.2H45v3.6h-8.6v4.8h7.3v3.6h-7.3v5H45v3.6H32.8z"/>
<path d="M75.5,20.8l-3.6-8.2h-2.6v8.2h-3.6V0.2h7.3c3.8,0,6,2.9,6,6.3c0,2.9-1.6,4.7-3.4,5.4l4.1,8.9H75.5z M72.7,3.8
	h-3.4v5.5h3.4c1.6,0,2.6-1.1,2.6-2.7C75.3,4.9,74.3,3.8,72.7,3.8z"/>
<path d="M93.2,20.8l-1.1-3.7h-6.6l-1.1,3.7h-3.8l6.7-20.7h2.8L97,20.8H93.2z M88.9,6.3l-2.3,7.5h4.6L88.9,6.3z"/>
<path d="M60.1,2.1c-1.2-1.4-3-2-4.9-2h-6.7v20.7h4.1c1.4-4,3.5-8.4,2.1-14.9c1.9,6.8,0,11.1-1.3,14.9h1.9
	c1.9,0,3.7-0.6,4.9-2c2.1-2.3,1.9-5.3,1.9-8.4C62,7.3,62.2,4.5,60.1,2.1z M54.5,18.4c1-2.6,2.1-6.8,0.6-11.9c2.1,2.6,2.4,6.4,2,8.2
	c3.8-4.2-0.1-9.1-4-11.2c2.5,4.6,2.1,8.9,0.2,14.2c-6-4.2,1.1-9.5-0.9-15.3C61.1,6.1,62.6,14.5,54.5,18.4z"/>
</svg>
